<svg xmlns="http://www.w3.org/2000/svg" version="1.1" xmlns:xlink="http://www.w3.org/1999/xlink" xmlns:svgjs="http://svgjs.dev/svgjs" width="2000" height="1252" viewBox="0 0 2000 1252"><g transform="matrix(1,0,0,1,-1.2121212121211329,-2.01935483870966)"><svg viewBox="0 0 396 248" data-background-color="#ffffff" preserveAspectRatio="xMidYMid meet" height="1252" width="2000" xmlns="http://www.w3.org/2000/svg" xmlns:xlink="http://www.w3.org/1999/xlink"><g id="tight-bounds" transform="matrix(1,0,0,1,0.2400000000000091,0.4000000000000057)"><svg viewBox="0 0 395.52 247.2" height="247.2" width="395.52"><g><svg></svg></g><g><svg viewBox="0 0 395.52 247.2" height="247.2" width="395.52"><g transform="matrix(1,0,0,1,75.54432000000001,62.254912254937956)"><svg viewBox="0 0 244.43135999999996 122.69017549012408" height="122.69017549012408" width="244.43135999999996"><g><svg viewBox="0 0 244.43135999999996 122.69017549012408" height="122.69017549012408" width="244.43135999999996"><g><svg viewBox="0 0 304.35754896822857 152.7696" height="122.69017549012408" width="244.43135999999996"><g transform="matrix(1,0,0,1,142.85825753965713,0)"><svg viewBox="0 0 161.4992914285714 152.7696" height="152.7696" width="161.4992914285714"><g id="textblocktransform"><svg viewBox="0 0 161.4992914285714 152.7696" height="152.7696" width="161.4992914285714" id="textblock"><g><svg viewBox="0 0 161.4992914285714 152.7696" height="152.7696" width="161.4992914285714"><g transform="matrix(1,0,0,1,0,0)"><svg width="161.4992914285714" viewBox="1.5 -35 37 35" height="152.7696" data-palette-color="#ef5b2a"><path d="M8.55 0L1.5 0 5.75-35 14.75-35 19 0 12 0 11.55-6.45 8.9-6.45 8.55 0ZM9.85-25L9.3-13.95 11.2-13.95 10.7-25 9.85-25ZM28.45 0L21 0 21-35 28.65-35Q31.35-35 33.6-33.68 35.85-32.35 37.17-30.13 38.5-27.9 38.5-25.15L38.5-25.15 38.5-19.3Q38.5-18 37.85-15.93 37.2-13.85 35.4-12.2L35.4-12.2 35.4-11.45 38.5 0 31 0 28.9-9.65 28.45-9.65 28.45 0ZM28.45-28.5L28.45-16.1 28.85-16.1Q29.75-16.1 30.37-16.63 31-17.15 31-19.3L31-19.3 31-25.3Q31-27.4 30.37-27.95 29.75-28.5 28.85-28.5L28.85-28.5 28.45-28.5Z" opacity="1" transform="matrix(1,0,0,1,0,0)" fill="#ef5b2a" class="wordmark-text-0" data-fill-palette-color="primary" id="text-0"></path></svg></g></svg></g></svg></g></svg></g><g transform="matrix(1,0,0,1,0,29.342107484814647)"><svg viewBox="0 0 106.79302145005714 94.0853850303707" height="94.0853850303707" width="106.79302145005714"><g><svg xmlns="http://www.w3.org/2000/svg" xmlns:xlink="http://www.w3.org/1999/xlink" version="1.1" x="0" y="0" viewBox="6.3 11.5 87.4 77" style="enable-background:new 0 0 100 100;" xml:space="preserve" height="94.0853850303707" width="106.79302145005714" class="icon-icon-0" data-fill-palette-color="accent" id="icon-0"><path d="M72.3 12.3L71.9 11.5H28.2L6.3 50 28.1 88.5H71.8L93.7 50zM33.3 25.3L9.9 47.7 28.5 14.9zM70.7 14.8L77.1 50.5 36.9 25.8zM35.5 27.3L76.5 52.5 35.5 75.8zM77 54.5L69.8 85.3 37.2 77.2zM33.5 75L9.9 50.5 33.5 27.8zM33.2 77.6L28.6 85.3 11.5 55.1zM35 78.6L66.4 86.5H30.2zM79.3 53.3L90.9 50.8 72.1 84zM90.7 48.9L79.3 51.4 73.4 18.3zM35 24.3L30 13.5H68.2z" fill="#301c3b" data-fill-palette-color="accent"></path></svg></g></svg></g></svg></g></svg></g></svg></g><g><path d="M0 123.6c0-68.262 55.338-123.6 123.6-123.6 39.684 0 75 18.702 97.615 47.773l-7.111 0c-21.658-25.823-54.164-42.241-90.504-42.241-65.207 0-118.068 52.861-118.068 118.068 0 65.207 52.861 118.068 118.068 118.068 36.34 0 68.845-16.418 90.504-42.241h7.111c-22.615 29.071-57.931 47.773-97.615 47.773-68.262 0-123.6-55.338-123.6-123.6z" fill="#ef5b2a" stroke="transparent" data-fill-palette-color="tertiary"></path></g></svg></g><defs></defs></svg><rect width="308.7612359841165"
   height="304.915625" fill="none" stroke="none" visibility="hidden"></rect></g></svg></g></svg>